<svg xmlns="http://www.w3.org/2000/svg" width="256" height="256" viewBox="0 0 256 256" fill="none"><g clip-path="url(#clip0_1700_3434)"><path d="M196 0H60C26.8629 0 0 26.8629 0 60V196C0 229.137 26.8629 256 60 256H196C229.137 256 256 229.137 256 196V60C256 26.8629 229.137 0 196 0Z" fill="#228298"></path><path fill-rule="evenodd" clip-rule="evenodd" d="M181.033 127.917C173.472 127.707 167.606 128.482 162.69 130.55C161.274 131.118 159.003 131.118 158.816 132.9C159.573 133.648 159.664 134.871 160.327 135.908C161.46 137.788 163.448 140.322 165.243 141.636L171.294 145.96C174.981 148.213 179.141 149.53 182.733 151.785C184.814 153.101 186.893 154.793 188.974 156.204C190.034 156.955 190.675 158.179 192 158.647V158.362C191.339 157.52 191.148 156.299 190.489 155.355L187.649 152.632C184.91 148.968 181.504 145.77 177.817 143.142C174.79 141.074 168.174 138.256 166.945 134.781L166.759 134.57C168.836 134.36 171.294 133.629 173.281 133.065C176.498 132.222 179.427 132.408 182.733 131.563L187.275 130.246V129.404C185.572 127.713 184.344 125.457 182.549 123.861C177.728 119.727 172.429 115.685 166.945 112.303C164.015 110.425 160.232 109.201 157.112 107.607C155.974 107.042 154.086 106.76 153.425 105.821C151.719 103.757 150.776 101.029 149.547 98.5847L141.795 82.2355C140.093 78.5707 139.051 74.9059 136.974 71.5238C127.234 55.5495 116.642 45.8723 100.38 36.3804C96.8831 34.407 92.7231 33.5583 88.3004 32.5263L81.2097 32.1472C79.6945 31.4901 78.1834 29.7042 76.859 28.8576C71.4699 25.4753 57.5702 18.1463 53.5968 27.8045C51.0431 33.9121 57.3795 39.9248 59.5304 43.0271C61.141 45.1878 63.2178 47.6308 64.3559 50.0739C64.9916 51.6702 65.2035 53.3635 65.8668 55.0547C67.3778 59.1888 68.7976 63.7947 70.7833 67.6489C71.8429 69.6222 72.9555 71.6921 74.28 73.4763C75.0365 74.529 76.361 74.98 76.6428 76.6707C75.3183 78.5514 75.2272 81.3674 74.4707 83.72C71.0651 94.3383 72.3896 107.493 77.2107 115.311C78.726 117.659 82.2968 122.829 87.1412 120.854C91.3965 119.162 90.4471 113.807 91.6763 109.108C91.9623 107.982 91.7716 107.23 92.3375 106.476V106.687L96.2155 114.485C99.1464 119.089 104.254 123.882 108.506 127.079C110.774 128.771 112.571 131.685 115.407 132.717V132.433H115.22C114.652 131.59 113.8 131.211 113.044 130.554C111.343 128.863 109.452 126.795 108.127 124.916C104.158 119.655 100.662 113.828 97.54 107.815C96.0248 104.903 94.7003 101.707 93.4755 98.7947C92.9033 97.6663 92.9033 95.9726 91.9603 95.4126C90.5404 97.4763 88.4636 99.2667 87.4188 101.802C85.6218 105.842 85.4353 110.823 84.7741 115.991C84.3927 116.085 84.5622 115.991 84.3927 116.201C81.3707 115.452 80.3281 112.347 79.1944 109.719C76.3588 103.047 75.8841 92.3356 78.3424 84.6298C79.0036 82.6565 81.8433 76.4545 80.7096 74.5753C80.1373 72.7897 78.2512 71.7578 77.2086 70.3467C75.9795 68.561 74.6593 66.3072 73.8074 64.3339C71.5398 59.0687 70.4061 53.2455 67.9457 47.9826C66.8077 45.5395 64.8242 43.0017 63.2157 40.7483C61.4187 38.2105 59.4372 36.4246 58.0174 33.4192C57.5448 32.3662 56.8836 30.6941 57.6402 29.5652C57.8266 28.8134 58.2081 28.5122 58.9604 28.3437C60.1896 27.2907 63.6904 28.6259 64.9195 29.1861C68.4162 30.5971 71.347 31.9114 74.2778 33.8826C75.6023 34.8219 77.0222 36.6078 78.7238 37.0796H80.7116C83.7378 37.7367 87.1391 37.2902 89.9725 38.1326C94.9843 39.7332 99.5214 42.0793 103.59 44.6192C115.975 52.4179 126.189 63.5062 133.089 76.7572C134.223 78.9183 134.695 80.8916 135.738 83.1469C137.726 87.7532 140.184 92.4499 142.166 96.9627C144.154 101.379 146.044 105.893 148.88 109.557C150.299 111.53 155.97 112.562 158.522 113.596C160.414 114.439 163.343 115.197 165.049 116.229C168.261 118.202 171.476 120.458 174.5 122.619C176.011 123.743 180.741 126.094 181.023 127.968L181.033 127.917ZM84.6109 46.2619C83.3046 46.2504 82.0023 46.4083 80.7371 46.7316V46.9422H80.9236C81.6801 48.4459 83.0046 49.4799 83.9497 50.7962L86.1261 55.3074L86.3126 55.0968C87.6371 54.1574 88.3004 52.6537 88.3004 50.4002C87.7325 49.7432 87.6393 49.084 87.1667 48.4269C86.5987 47.4876 85.3696 47.0159 84.6109 46.2662V46.2619Z" fill="#E0E0E0"></path><path d="M119 152.373C115.07 174.055 109.886 189.811 103.452 199.64C98.4382 207.213 92.9461 211 86.9655 211C85.3712 211 83.4052 210.512 81.0723 209.542V204.315C82.212 204.485 83.5493 204.575 85.0873 204.575C87.8774 204.575 90.1259 203.791 91.8366 202.226C93.8852 200.32 94.9104 198.176 94.9104 195.801C94.9104 194.179 94.1107 190.85 92.5187 185.815L81.9271 152.373H91.408L99.0098 177.384C100.718 183.063 101.43 187.027 101.145 189.287C105.303 177.996 108.207 165.691 109.86 152.373H119M77.1363 195.629H67.4855C67.1461 179.066 66.2053 163.492 64.6676 148.903H64.5826L49.8885 195.629H42.5404L27.9354 148.903H27.8493C26.7656 162.913 26.0838 178.488 25.7995 195.629H17C17.5686 174.783 18.9917 155.241 21.2693 137H33.231L47.1546 180.079H47.24L61.249 137H72.6943C75.2005 158.364 76.6805 177.911 77.1351 195.629" fill="white"></path><path d="M248 195.056H220.671V136.864H229.867V187.898H248V195.056M179.288 183.415C176.96 179.622 175.794 173.535 175.794 165.141C175.794 150.488 180.195 143.157 188.992 143.157C193.591 143.157 196.967 144.91 199.126 148.413C201.451 152.208 202.617 158.243 202.617 166.519C202.617 181.29 198.216 188.678 189.419 188.678C184.821 188.678 181.444 186.926 179.288 183.416M213.515 196.46L202.951 191.185C203.892 190.404 204.785 189.562 205.593 188.586C210.079 183.247 212.324 175.345 212.324 164.883C212.324 145.631 204.859 136 189.931 136C182.609 136 176.902 138.441 172.816 143.331C168.329 148.676 166.089 156.549 166.089 166.951C166.089 177.18 168.074 184.684 172.048 189.451C175.668 193.76 181.143 195.917 188.473 195.917C191.207 195.917 193.716 195.576 195.997 194.894L209.754 203L213.505 196.459M162.092 178.926C162.092 183.861 160.301 187.913 156.731 191.083C153.158 194.239 148.358 195.821 142.348 195.821C136.726 195.821 131.278 194 126 190.388L128.469 185.389C133.011 187.687 137.121 188.835 140.811 188.835C144.272 188.835 146.981 188.055 148.941 186.514C150.897 184.962 152.069 182.797 152.069 180.052C152.069 176.596 149.689 173.643 145.323 171.165C141.291 168.925 133.235 164.249 133.235 164.249C128.87 161.025 126.681 157.565 126.681 151.866C126.681 147.152 128.313 143.341 131.573 140.442C134.84 137.537 139.055 136.085 144.217 136.085C149.553 136.085 154.405 137.527 158.774 140.4L156.555 145.394C152.816 143.789 149.128 142.983 145.493 142.983C142.544 142.983 140.271 143.7 138.686 145.143C137.092 146.573 136.107 148.413 136.107 150.656C136.107 154.102 138.539 157.092 143.029 159.617C147.111 161.859 155.365 166.626 155.365 166.626C159.854 169.844 162.092 173.275 162.092 178.926" fill="#F29111"></path></g><defs><clipPath id="clip0_1700_3434"><rect width="256" height="256" fill="white"></rect></clipPath></defs></svg>